<svg width="193" height="171" viewBox="0 0 193 171" fill="none" xmlns="http://www.w3.org/2000/svg">
<path d="M29.3789 0.365952C27.8778 1.2601 27.6633 2.11169 27.4489 8.20039L27.2344 14.1614L21.1442 14.3743C14.0247 14.6297 13.8531 14.7149 13.3813 18.4192L13.0811 20.9739L7.63422 21.1868C2.61622 21.3997 2.14444 21.4848 1.11511 22.4216L0 23.4435V87.9497V152.413L1.37244 153.691L2.74489 154.968L6.86222 154.627C16.1262 153.776 38.214 154.627 48.4644 156.16C64.8909 158.672 73.5116 160.801 83.6333 164.974C87.7936 166.677 92.8116 169.189 94.3127 170.296C95.8567 171.446 97.1004 171.233 100.36 169.317C111.254 162.888 129.01 157.863 148.181 155.734C159.976 154.415 177.303 153.904 185.966 154.585L190.255 154.925L191.628 153.691L193 152.413V87.9071V23.4009L191.67 22.2938C190.427 21.2294 190.126 21.1868 185.023 21.1868C182.106 21.1868 179.704 21.0591 179.704 20.8462C179.318 14.2465 179.533 14.4168 171.813 14.2891L165.766 14.1614L165.551 7.85977C165.337 1.77106 165.294 1.51558 164.264 0.706589C163.407 0.0253296 162.763 -0.102386 160.833 0.0679321C157.745 0.365982 153.328 1.04721 151.183 1.55815C150.24 1.81363 148.61 2.15427 147.538 2.40973C139.689 4.11287 127.895 8.88164 121.461 12.9266C120.218 13.7356 119.102 14.3743 119.017 14.3743C118.888 14.3743 116.915 15.8219 114.556 17.5676C109.281 21.57 102.633 28.3825 99.3307 33.2365C97.9153 35.2802 96.6716 36.9408 96.5429 36.9408C96.3713 36.9408 94.9989 35.1525 93.4978 32.981C83.8907 19.3985 68.1504 8.75391 50.18 3.72966C49.1078 3.43161 47.864 3.0484 47.3922 2.87808C46.9204 2.66519 45.9769 2.40973 45.2478 2.282C44.5616 2.15427 43.0176 1.85622 41.8167 1.60075C34.9544 0.110504 30.5369 -0.315292 29.3789 0.365952Z" fill="white" fill-opacity="0.9"/>
</svg>
