<svg width="239" height="158" viewBox="0 0 239 158" fill="none" xmlns="http://www.w3.org/2000/svg">
<g filter="url(#filter0_f_2019_3)">
<path d="M122.004 72.4796L128.301 69.9362L125.565 75.7917L148.393 78.5001L125.565 81.2081L128.301 87.064L122.004 84.5202L119.092 105.75L116.18 84.5202L109.884 87.064L112.618 81.2081L89.791 78.5001L112.618 75.7917L109.884 69.9362L116.18 72.4796L119.092 51.2501L122.004 72.4796Z" fill="white"/>
<path d="M122.004 72.4796L128.301 69.9362L125.565 75.7917L148.393 78.5001L125.565 81.2081L128.301 87.064L122.004 84.5202L119.092 105.75L116.18 84.5202L109.884 87.064L112.618 81.2081L89.791 78.5001L112.618 75.7917L109.884 69.9362L116.18 72.4796L119.092 51.2501L122.004 72.4796Z" stroke="#FFC547" stroke-opacity="0.5" stroke-width="67.9785"/>
</g>
<path d="M87.7503 38.1739C87.037 38.5987 86.9351 39.0034 86.8333 41.8964L86.7314 44.7287L83.8376 44.8299C80.4548 44.9513 80.3733 44.9917 80.1491 46.7518L80.0065 47.9657L77.4184 48.0668C75.0341 48.168 74.8099 48.2084 74.3209 48.6535L73.791 49.1391V79.789V110.419L74.4431 111.026L75.0952 111.632L77.0516 111.471C81.4533 111.066 91.9483 111.471 96.8187 112.199C104.624 113.393 108.72 114.404 113.529 116.387C115.506 117.196 117.89 118.39 118.603 118.916C119.337 119.462 119.928 119.361 121.477 118.45C126.653 115.395 135.09 113.008 144.199 111.997C149.803 111.369 158.036 111.127 162.152 111.45L164.19 111.612L164.842 111.026L165.494 110.419V79.7687V49.1188L164.862 48.5928C164.272 48.0871 164.129 48.0668 161.704 48.0668C160.318 48.0668 159.177 48.0061 159.177 47.905C158.993 44.7692 159.095 44.8501 155.427 44.7894L152.554 44.7287L152.452 41.7345C152.35 38.8415 152.33 38.7201 151.841 38.3357C151.433 38.012 151.127 37.9514 150.21 38.0323C148.743 38.1739 146.644 38.4976 145.625 38.7403C145.177 38.8617 144.402 39.0236 143.893 39.145C140.164 39.9542 134.56 42.2201 131.503 44.142C130.912 44.5264 130.382 44.8299 130.341 44.8299C130.28 44.8299 129.343 45.5177 128.222 46.3472C125.715 48.2489 122.557 51.4859 120.988 53.7922C120.315 54.7633 119.724 55.5523 119.663 55.5523C119.581 55.5523 118.929 54.7026 118.216 53.6708C113.651 47.2171 106.172 42.1594 97.6339 39.7721C97.1244 39.6305 96.5334 39.4484 96.3093 39.3675C96.0851 39.2664 95.6368 39.145 95.2903 39.0843C94.9643 39.0236 94.2306 38.882 93.66 38.7606C90.3995 38.0525 88.3005 37.8502 87.7503 38.1739Z" fill="white" fill-opacity="0.9"/>
<defs>
<filter id="filter0_f_2019_3" x="-0.000240326" y="-36.4683" width="238.192" height="229.943" filterUnits="userSpaceOnUse" color-interpolation-filters="sRGB">
<feFlood flood-opacity="0" result="BackgroundImageFix"/>
<feBlend mode="normal" in="SourceGraphic" in2="BackgroundImageFix" result="shape"/>
<feGaussianBlur stdDeviation="21.2726" result="effect1_foregroundBlur_2019_3"/>
</filter>
</defs>
</svg>
