<svg width="1280" height="1144" viewBox="0 0 1280 1144" fill="none" xmlns="http://www.w3.org/2000/svg">
<path d="M26.9639 449.419C14.6006 448.626 4.47314 458.49 0.132812 465.332V576.995C41.3791 584.15 72.1208 560.949 82.336 548.454L74.7075 525.174C68.1839 472.564 40.1603 452.75 26.9639 449.419Z" fill="#00006C"/>
<path d="M23.2799 449.616C25.926 449.165 28.78 449.494 31.6984 450.438C69.4809 454.54 141.183 466.884 173.613 472.239C184.924 474.106 223.768 512.131 228.59 531.817C204.916 570.354 145.665 642.588 122.318 627.699C97.9861 612.181 93.5143 578.771 83.5184 551.94L72.273 516.889L61.0276 481.838C56.8981 468.708 43.7499 454.335 31.6984 450.438C28.6602 450.108 25.8414 449.832 23.2799 449.616Z" fill="#07078E"/>
<path d="M506.763 838.862C457.227 834.948 430.388 830.686 386.023 815.318C410.224 812.425 500.713 786.251 656.439 640.391L749.559 556.346C840.442 477.693 860.829 489.487 877.927 490.714C951.265 497.975 1011.82 570.813 1029.84 608.298C997.431 610.823 915.061 672.966 882.53 701.419L754.951 804.534C740.176 815.977 705.761 840.546 686.295 847.28C666.829 854.014 558.497 844.474 506.763 838.862Z" fill="#00006C" stroke="black" stroke-width="0.26305"/>
<path d="M1275.53 562.133L867.93 490.715C1005.11 514.752 1099.39 703.102 1280 1143.61L1275.53 562.133Z" fill="#07078E"/>
<path d="M291.587 645.125C291.587 645.125 129.154 659.987 114.555 622.108C139.162 628.175 249.105 504.393 249.105 504.393L266.466 482.954C266.466 482.954 306.081 430.581 332.492 431.002C358.902 431.423 361.033 485.015 358.797 511.758C361.322 531.855 367.773 579.936 343.54 610.534C328.407 629.641 313.707 635.919 291.587 645.125Z" fill="#00006C"/>
<path d="M336.687 431.73L328.547 430.213C331.522 430.213 334.23 430.732 336.687 431.73L543.064 470.197C560.776 478.22 596.2 507.471 596.2 560.291C596.2 613.112 593.745 647.186 592.518 657.62L596.2 696.814C564.021 729.301 493.216 788.356 473.356 799.667C435.214 832.943 313.553 848.989 334.597 657.62C355.146 561.765 372.357 446.224 336.687 431.73Z" fill="#07078E"/>
<path d="M1281.25 450.741L1294.03 557.604C1294.14 558.493 1293.64 559.345 1292.81 559.689L1071.77 651.386C1064.33 654.472 1056.35 656.029 1048.3 655.963L859.152 654.426C858.769 654.423 858.394 654.529 858.07 654.733L742.683 727.425C741.44 728.208 739.811 727.426 739.708 725.961C737.678 697.043 755.134 670.116 765.987 658.136C766.622 657.435 766.044 656.29 765.105 656.402L727.45 660.909C726.32 661.044 725.297 660.197 725.288 659.059C725.05 627.818 774.125 614.042 799.235 611.037L893.041 606.286C895.3 606.171 895.663 602.984 893.487 602.365L777.243 569.268C776.445 569.041 775.86 568.331 775.844 567.502C775.41 544.829 814.861 540.7 835.038 541.514L929.636 557.396C930.788 557.59 931.411 558.634 931.291 559.622C933.247 558.177 935.352 556.623 937.616 554.954C984.702 520.227 1013.95 489.76 1024.43 476.818C1025.29 475.76 1024.81 474.198 1023.52 473.753L957.471 450.908C957.312 450.853 957.155 450.774 957.015 450.681C920.809 426.592 927.05 404.806 935.258 396.165C935.704 395.697 936.362 395.512 936.997 395.636L1045.59 416.812C1058.13 419.256 1071.01 418.841 1083.72 417.697C1114.12 414.965 1149.47 418.748 1171.11 422.328C1177.52 423.387 1183.62 425.662 1189.42 428.588C1210 438.978 1242.46 453.369 1255.65 451.79L1279.03 448.993C1280.12 448.861 1281.11 449.645 1281.25 450.741Z" fill="white" stroke="white"/>
<path d="M1163 0L937.5 394.5L901.5 467.564L937.5 491.5L881 512L851 584L847.5 526.5L791 548L121.5 12.5L1163 0Z" fill="url(#paint0_linear_2001_2)" fill-opacity="0.17"/>
<path d="M481.699 319.007L480.358 321.205L480.03 321.983V329.24L478.896 378.27L478.449 397.527L479.193 398.83L476.867 401.342C480.142 402.235 479.783 419.267 479.193 427.671L478.449 434.09L479.193 435.857L476.867 436.788L478.449 445.72V450.93H470.541L472.774 453.441C473.085 455.333 473.519 459.377 472.774 460.419C472.03 461.461 467.44 461.907 465.238 462L462.354 459.116L457.051 457.907C456.368 457.938 453.812 457.683 449.05 456.418C444.286 455.153 444.398 449.378 445.049 446.649L453.701 445.72L455.935 442.742L455.003 435.857L457.051 434.09L452.306 426.555V414.088L450.91 408.599L449.05 407.018V401.342L442.071 381.805L437.979 343.754L427 338.544L431.651 309.703L448.212 304.959V302.261L445.886 296.68L443.189 295.19L444.118 287.189L443.189 280.305C442.817 277.514 444.026 271.802 451.841 271.281C459.655 270.76 464.463 275.901 465.89 278.537L464.587 287.189L465.89 289.423L464.587 292.214L462.54 296.68C462.633 297.61 463.173 299.694 464.587 300.587C466.001 301.48 470.137 302.075 472.029 302.261C472.778 302.222 473.463 302.236 474.089 302.29L489.887 271.467L488.397 269.327L489.887 264.582H493.607L497.236 259L481.699 319.007Z" fill="white"/>
<path d="M414.558 444.767L416.138 442.194L411.4 426.373C410.873 423.976 409.67 418.636 409.068 416.456C408.466 414.276 408.817 407.07 409.068 403.739H407.037C404.932 403.739 397.435 401.317 393.95 400.105L395.53 375.352L397.41 359.834C395.58 358.951 390.34 355.807 384.022 350.296C377.705 344.785 373.417 335.838 372.063 332.053C370.138 329.873 371.261 326.199 372.063 324.634L391.919 299.805C393.965 297.443 401.346 296.046 404.781 295.642V289.208L402.524 284.136L400.193 283.379L399.666 278.761L400.719 278.156V276.112L398.162 271.267C399.606 269.087 406.435 265.514 409.669 264L420.5 267.104L422.681 274.749L420.5 279.291H421.628V283.379L441.936 298.367L440.431 308.662L433.286 315.929L431.255 328.495L436.821 339.547V352.037L439.755 356.503L435.392 361.121V396.093L439.755 407.297L440.281 415.548V428.265L441.184 435.835L442.989 442.194C443.114 443.43 442.252 445.963 437.799 446.206C433.346 446.448 431.983 442.825 431.857 440.983C432.308 439.998 432.745 437.985 430.879 437.803C429.014 437.622 428.949 434.346 429.15 432.731V430.915L430.879 428.265L433.211 426.373L431.857 418.879C430.233 417.365 428.071 413.252 427.194 411.385V401.998H421.327L420.801 400.105L420.049 401.392L420.801 409.492L423.208 417.44L423.885 431.596L425.013 447.19L427.72 449.007C428.197 451 429.3 455.395 429.902 457.031C430.503 458.666 429.651 460.588 429.15 461.345C427.705 462.799 421.127 461.497 418.018 460.664L403.878 452.867L402.9 447.644L404.856 444.767H414.558Z" fill="white"/>
<path d="M935.734 393.184L902.824 467.122L939.145 491.232L882.485 512.818L849.575 586.756L847.466 526.159L790.806 547.745L846.163 488.708L844.055 428.112L880.376 452.221L935.734 393.184Z" fill="url(#paint1_linear_2001_2)"/>
<defs>
<linearGradient id="paint0_linear_2001_2" x1="642.25" y1="2.07432e-05" x2="813.5" y2="433.001" gradientUnits="userSpaceOnUse">
<stop stop-color="white" stop-opacity="0"/>
<stop offset="1" stop-color="white"/>
</linearGradient>
<linearGradient id="paint1_linear_2001_2" x1="913.243" y1="535.564" x2="812.813" y2="508.273" gradientUnits="userSpaceOnUse">
<stop stop-color="#FFD900"/>
<stop offset="1" stop-color="#FFD900"/>
</linearGradient>
</defs>
</svg>
