<svg width="1280" height="689" viewBox="0 0 1280 689" fill="none" xmlns="http://www.w3.org/2000/svg">
<g opacity="0.5">
<path d="M901.637 689L849 610.715L1489 512.075V689H901.637Z" fill="url(#paint0_linear_1_347)"/>
<path d="M341.363 689L394 610.715L-246 512.075V689H341.363Z" fill="url(#paint1_linear_1_347)"/>
<path d="M922.504 525.262L848.026 469.892L1412.51 151.866L1469.95 318.813L922.504 525.262Z" fill="url(#paint2_linear_1_347)"/>
<path d="M847.463 371.945L761.276 341.985L1199.22 -131.765L1301.96 9.37644L847.463 371.945Z" fill="url(#paint3_linear_1_347)"/>
<path d="M727.214 268.777L643.444 272.998L741.381 -204L896.431 -132.305L727.214 268.777Z" fill="url(#paint4_linear_1_347)"/>
<path d="M540.778 238.428L467.014 280.207L357.998 -194.149L527.411 -199.812L540.778 238.428Z" fill="url(#paint5_linear_1_347)"/>
<path d="M375.204 280.41L329.019 353.697L19.0014 -10.5862L165.793 -99.3105L375.204 280.41Z" fill="url(#paint6_linear_1_347)"/>
<path d="M311.028 387.596L304.249 475.109L-134.997 312.068L-47.1368 160.319L311.028 387.596Z" fill="url(#paint7_linear_1_347)"/>
</g>
<defs>
<linearGradient id="paint0_linear_1_347" x1="1488.16" y1="600.277" x2="925.513" y2="727.471" gradientUnits="userSpaceOnUse">
<stop stop-color="white" stop-opacity="0.24"/>
<stop offset="1" stop-color="white" stop-opacity="0"/>
</linearGradient>
<linearGradient id="paint1_linear_1_347" x1="-245.165" y1="600.277" x2="317.487" y2="727.471" gradientUnits="userSpaceOnUse">
<stop stop-color="white" stop-opacity="0.24"/>
<stop offset="1" stop-color="white" stop-opacity="0"/>
</linearGradient>
<linearGradient id="paint2_linear_1_347" x1="1440.37" y1="235.387" x2="948.979" y2="539.825" gradientUnits="userSpaceOnUse">
<stop stop-color="white" stop-opacity="0.24"/>
<stop offset="1" stop-color="white" stop-opacity="0"/>
</linearGradient>
<linearGradient id="paint3_linear_1_347" x1="1249.79" y1="-60.8866" x2="871.546" y2="373.323" gradientUnits="userSpaceOnUse">
<stop stop-color="white" stop-opacity="0.24"/>
<stop offset="1" stop-color="white" stop-opacity="0"/>
</linearGradient>
<linearGradient id="paint4_linear_1_347" x1="818.437" y1="-167.688" x2="706.672" y2="251.774" gradientUnits="userSpaceOnUse">
<stop stop-color="white" stop-opacity="0.24"/>
<stop offset="1" stop-color="white" stop-opacity="0"/>
</linearGradient>
<linearGradient id="paint5_linear_1_347" x1="442.474" y1="-196.349" x2="532.069" y2="228.865" gradientUnits="userSpaceOnUse">
<stop stop-color="white" stop-opacity="0.24"/>
<stop offset="1" stop-color="white" stop-opacity="0"/>
</linearGradient>
<linearGradient id="paint6_linear_1_347" x1="92.4784" y1="-54.2774" x2="371.829" y2="268.837" gradientUnits="userSpaceOnUse">
<stop stop-color="white" stop-opacity="0.24"/>
<stop offset="1" stop-color="white" stop-opacity="0"/>
</linearGradient>
<linearGradient id="paint7_linear_1_347" x1="-90.6869" y1="236.741" x2="300.453" y2="385.2" gradientUnits="userSpaceOnUse">
<stop stop-color="white" stop-opacity="0.24"/>
<stop offset="1" stop-color="white" stop-opacity="0"/>
</linearGradient>
</defs>
</svg>
