<svg width="489" height="432" viewBox="0 0 489 432" fill="none" xmlns="http://www.w3.org/2000/svg">
<path d="M28.3008 73.0173C33.3957 53.9498 68.4085 -3.96922 170.948 0.215515C298.312 5.41347 318.691 104.215 333.975 166.621C355.625 255.023 339.069 239.425 364.542 281.028C376.174 300.026 400.204 295.831 435.866 343.432C502.095 431.834 503.794 489.039 502.096 535.841L435.866 518.489C550.349 645.855 660.028 764.655 660.027 780.254C660.026 795.834 660.027 863.089 660.027 863.242L542.852 827.056L553.041 873.858C483.755 861.377 440.961 882.309 430.771 863.242L420.582 801.054L342.319 781.083C340.411 780.596 338.416 781.475 337.488 783.212L308.502 837.457H357.02C361.665 837.457 365.948 839.967 368.217 844.02L381.355 867.491C382.952 870.342 380.891 873.858 377.623 873.858H91.6377C88.37 873.858 86.309 870.342 87.9053 867.491L101.044 844.02C103.313 839.967 107.597 837.457 112.242 837.457H191.327L240.618 736.827C241.564 734.895 240.959 732.586 239.178 731.381C162.443 679.483 79.2402 578.793 40.416 528.912C25.3946 509.612 15.153 487.258 10.9424 463.167C0.478096 403.294 -13.5027 287.658 28.3008 260.227C85.36 222.786 155.665 270.626 150.57 296.628C166.873 255.026 242.273 197.822 283.029 218.624C315.634 43.8958 206.61 26.2142 145.476 78.2165C92.4924 36.6149 48.6792 55.6832 28.3008 73.0173ZM249.474 185.32H185.324V173.916H249.474V185.32ZM111.192 182.469H47.043V171.065H111.192V182.469ZM249.474 159.66H185.324V148.256H249.474V159.66ZM111.192 156.809H47.043V145.405H111.192V156.809ZM111.192 131.149H47.043V119.745H111.192V131.149ZM249.474 131.149H185.324V119.745H249.474V131.149Z" fill="white"/>
</svg>
