<svg width="82" height="54" viewBox="0 0 82 54" fill="none" xmlns="http://www.w3.org/2000/svg">
<path d="M9.31836 12.541C9.31836 13.8078 8.86283 14.9217 7.95312 15.8818C7.04352 16.8417 5.95209 17.3284 4.67871 17.3418C3.82099 17.3285 3.0341 17.095 2.31934 16.6416C1.61772 16.2016 1.05281 15.6213 0.624023 14.9014C0.208175 14.1813 -5.85489e-07 13.3944 -5.48185e-07 12.541C7.5804e-05 11.2078 0.45475 10.0677 1.36426 9.12109C2.28696 8.18766 3.39213 7.72787 4.67871 7.74121C5.95215 7.72794 7.04349 8.18776 7.95312 9.12109C8.86275 10.0678 9.31828 11.2077 9.31836 12.541ZM9.31836 41.3437C9.31836 42.6772 8.86283 43.8179 7.95312 44.7646C7.04355 45.6978 5.95204 46.1578 4.67871 46.1445C3.39216 46.1579 2.28695 45.698 1.36426 44.7646C0.45455 43.8179 -1.86548e-06 42.6772 -1.80719e-06 41.3437C2.87477e-05 40.4904 0.208189 39.7034 0.624022 38.9834C1.05283 38.2635 1.61772 37.6831 2.31933 37.2432C3.0341 36.7898 3.82099 36.5563 4.67871 36.543C5.95218 36.5564 7.04349 37.0439 7.95312 38.0039C8.86275 38.9639 9.31832 40.077 9.31836 41.3437ZM40.9756 40.5234C40.9756 42.937 40.5537 45.1444 39.709 47.1445C38.8773 49.1447 37.6096 50.7514 35.9072 51.9648C34.2178 53.1783 32.0736 53.819 29.4746 53.8857L29.4746 45.7246C30.5401 45.6846 31.4298 45.4171 32.1445 44.9238C32.8722 44.4305 33.4183 43.7977 33.7822 43.0244C34.1591 42.251 34.3477 41.4302 34.3477 40.5635C34.3476 39.6703 34.1655 38.8573 33.8018 38.124C33.4379 37.3773 32.918 36.7838 32.2422 36.3437C31.5664 35.9037 30.7805 35.6836 29.8838 35.6836C29.0391 35.6836 28.2718 35.877 27.583 36.2637C26.9075 36.6503 26.2901 37.17 25.7314 37.8232C25.1726 38.4766 24.6331 39.2172 24.1133 40.0439C23.4376 41.1505 22.6841 42.0971 21.8525 42.8838C21.0208 43.6705 19.9287 44.2712 18.5771 44.6846C17.2256 45.0845 15.4128 45.2914 13.1387 45.3047L12.4756 45.3047L12.4756 37.7236L13.1387 37.7236C14.4123 37.7103 15.4848 37.5437 16.3555 37.2236C17.226 36.8903 17.9926 36.3902 18.6553 35.7236C19.318 35.0436 19.9547 34.1764 20.5654 33.123C21.2932 31.8696 22.1062 30.7824 23.0029 29.8623C23.9124 28.9425 24.9518 28.2293 26.1211 27.7227C27.2978 27.2052 28.6421 26.945 30.1533 26.9424C28.6421 26.9398 27.2978 26.6805 26.1211 26.1631C24.9516 25.6564 23.9125 24.9424 23.0029 24.0225C22.1063 23.1024 21.2932 22.0161 20.5654 20.7627C19.9546 19.7093 19.318 18.8422 18.6553 18.1621C17.9926 17.4955 17.226 16.9955 16.3555 16.6621C15.4848 16.3421 14.4123 16.1754 13.1387 16.1621L12.4756 16.1621L12.4756 8.58105L13.1387 8.58105C15.4128 8.59439 17.2256 8.80116 18.5771 9.20117C19.9287 9.61455 21.0208 10.2142 21.8525 11.001C22.6843 11.7877 23.4375 12.735 24.1133 13.8418C24.633 14.6684 25.1727 15.4082 25.7314 16.0615C26.2902 16.7148 26.9073 17.2354 27.583 17.6221C28.2718 18.0088 29.0391 18.2021 29.8838 18.2021C30.7804 18.2021 31.5665 17.9819 32.2422 17.542C32.9179 17.102 33.4379 16.5084 33.8018 15.7617C34.1656 15.0283 34.3477 14.2147 34.3477 13.3213C34.3476 12.4546 34.1591 11.6347 33.7822 10.8613C33.4183 10.0879 32.8723 9.45432 32.1445 8.96094C31.4299 8.46773 30.54 8.20117 29.4746 8.16113L29.4746 -2.29387e-06C32.0736 0.0667072 34.2179 0.706566 35.9072 1.91992C37.6096 3.13333 38.8773 4.74013 39.709 6.74023C40.5537 8.74042 40.9756 10.9478 40.9756 13.3613C40.9756 16.0149 40.5472 18.3621 39.6895 20.4023C38.8447 22.4426 37.6164 24.043 36.0049 25.2031C34.4005 26.3581 32.4674 26.9373 30.2061 26.9424C32.4674 26.9475 34.4005 27.5276 36.0049 28.6826C37.6163 29.8427 38.8448 31.4432 39.6895 33.4834C40.547 35.5234 40.9755 37.8702 40.9756 40.5234ZM68.8135 16.1621C67.5399 16.1754 66.4674 16.3421 65.5967 16.6621C64.7261 16.9955 63.9596 17.4955 63.2969 18.1621C62.6341 18.8422 61.9975 19.7093 61.3867 20.7627C60.659 22.0161 59.8459 23.1024 58.9492 24.0225C58.0396 24.9424 57.0005 25.6564 55.8311 26.1631C54.6544 26.6805 53.31 26.9398 51.7988 26.9424C53.31 26.945 54.6544 27.2052 55.8311 27.7227C57.0003 28.2293 58.0397 28.9425 58.9492 29.8623C59.8459 30.7824 60.659 31.8696 61.3867 33.123C61.9975 34.1764 62.6341 35.0436 63.2969 35.7236C63.9596 36.3902 64.7262 36.8903 65.5967 37.2236C66.4674 37.5437 67.5399 37.7103 68.8135 37.7236L69.4766 37.7236L69.4766 45.3047L68.8135 45.3047C66.5394 45.2914 64.7265 45.0845 63.375 44.6846C62.0234 44.2712 60.9313 43.6705 60.0996 42.8838C59.268 42.0971 58.5145 41.1505 57.8389 40.0439C57.319 39.2172 56.7795 38.4766 56.2207 37.8232C55.662 37.17 55.0447 36.6503 54.3691 36.2637C53.6804 35.877 52.9131 35.6836 52.0684 35.6836C51.1717 35.6836 50.3857 35.9037 49.71 36.3437C49.0342 36.7838 48.5143 37.3773 48.1504 38.124C47.7866 38.8573 47.6045 39.6703 47.6045 40.5635C47.6045 41.4302 47.793 42.251 48.1699 43.0244C48.5338 43.7977 49.08 44.4305 49.8076 44.9238C50.5223 45.4171 51.412 45.6846 52.4775 45.7246L52.4775 53.8857C49.8785 53.819 47.7343 53.1783 46.0449 51.9648C44.3425 50.7514 43.0749 49.1447 42.2432 47.1445C41.3985 45.1444 40.9766 42.937 40.9766 40.5234C40.9766 37.8702 41.4051 35.5234 42.2627 33.4834C43.1074 31.4432 44.3358 29.8427 45.9473 28.6826C47.5519 27.5274 49.4853 26.9473 51.7471 26.9424C49.4853 26.9375 47.5519 26.3583 45.9473 25.2031C44.3358 24.043 43.1074 22.4426 42.2627 20.4023C41.405 18.3621 40.9766 16.0149 40.9766 13.3613C40.9766 10.9478 41.3985 8.74042 42.2432 6.74023C43.0749 4.74014 44.3426 3.13333 46.0449 1.91992C47.7343 0.706572 49.8786 0.0667018 52.4775 -1.28838e-06L52.4775 8.16113C51.4122 8.20116 50.5223 8.46773 49.8076 8.96094C49.0799 9.45432 48.5338 10.0879 48.1699 10.8613C47.7931 11.6347 47.6045 12.4546 47.6045 13.3213C47.6045 14.2147 47.7865 15.0283 48.1504 15.7617C48.5143 16.5084 49.0342 17.102 49.71 17.542C50.3857 17.9819 51.1718 18.2021 52.0684 18.2021C52.9129 18.2021 53.6795 18.0086 54.3682 17.6221C55.0439 17.2354 55.6619 16.7149 56.2207 16.0615C56.7794 15.4082 57.3191 14.6684 57.8389 13.8418C58.5146 12.735 59.2679 11.7877 60.0996 11.001C60.9313 10.2142 62.0234 9.61455 63.375 9.20117C64.7265 8.80117 66.5393 8.59439 68.8135 8.58105L69.4766 8.58105L69.4766 16.1621L68.8135 16.1621ZM81.9521 12.541C81.9521 13.3944 81.744 14.1813 81.3281 14.9014C80.8993 15.6213 80.3344 16.2016 79.6328 16.6416C78.918 17.095 78.1312 17.3285 77.2734 17.3418C76 17.3284 74.9086 16.8417 73.999 15.8818C73.0893 14.9217 72.6338 13.8078 72.6338 12.541C72.6339 11.2077 73.0894 10.0678 73.999 9.12109C74.9087 8.18777 76 7.72794 77.2734 7.74121C78.56 7.72788 79.6652 8.18766 80.5879 9.12109C81.4974 10.0677 81.9521 11.2078 81.9521 12.541ZM81.9521 41.3438C81.9521 42.6772 81.4976 43.8179 80.5879 44.7646C79.6652 45.6981 78.56 46.1579 77.2734 46.1445C76.0001 46.1578 74.9086 45.6978 73.999 44.7646C73.0893 43.8179 72.6338 42.6772 72.6338 41.3437C72.6338 40.077 73.0894 38.964 73.999 38.0039C74.9087 37.0439 76 36.5564 77.2734 36.543C78.1312 36.5563 78.918 36.7898 79.6328 37.2432C80.3344 37.6831 80.8993 38.2635 81.3281 38.9834C81.744 39.7034 81.9521 40.4904 81.9521 41.3438Z" fill="white"/>
</svg>
