<svg width="71" height="54" viewBox="0 0 71 54" fill="none" xmlns="http://www.w3.org/2000/svg">
<path d="M-1.68066 12.541C-1.68066 13.8078 -2.13619 14.9217 -3.0459 15.8818C-3.9555 16.8417 -5.04693 17.3284 -6.32031 17.3418C-7.17803 17.3285 -7.96492 17.095 -8.67969 16.6416C-9.3813 16.2016 -9.94621 15.6213 -10.375 14.9014C-10.7908 14.1813 -10.999 13.3944 -10.999 12.541C-10.9989 11.2078 -10.5443 10.0677 -9.63477 9.12109C-8.71207 8.18766 -7.6069 7.72787 -6.32031 7.74121C-5.04688 7.72794 -3.95553 8.18776 -3.0459 9.12109C-2.13627 10.0678 -1.68074 11.2077 -1.68066 12.541ZM-1.68067 41.3437C-1.68067 42.6772 -2.13619 43.8179 -3.0459 44.7646C-3.95548 45.6978 -5.04698 46.1578 -6.32031 46.1445C-7.60687 46.1579 -8.71208 45.698 -9.63477 44.7646C-10.5445 43.8179 -10.999 42.6772 -10.999 41.3437C-10.999 40.4904 -10.7908 39.7034 -10.375 38.9834C-9.94619 38.2635 -9.3813 37.6831 -8.67969 37.2432C-7.96492 36.7898 -7.17803 36.5563 -6.32031 36.543C-5.04685 36.5564 -3.95554 37.0439 -3.0459 38.0039C-2.13628 38.9639 -1.6807 40.077 -1.68067 41.3437ZM29.9766 40.5234C29.9766 42.937 29.5546 45.1444 28.71 47.1445C27.8782 49.1447 26.6106 50.7514 24.9082 51.9648C23.2188 53.1783 21.0746 53.819 18.4756 53.8857L18.4756 45.7246C19.5411 45.6846 20.4308 45.4171 21.1455 44.9238C21.8732 44.4305 22.4193 43.7977 22.7832 43.0244C23.1601 42.251 23.3486 41.4302 23.3486 40.5635C23.3486 39.6703 23.1665 38.8573 22.8027 38.124C22.4389 37.3773 21.9189 36.7838 21.2432 36.3437C20.5674 35.9037 19.7814 35.6836 18.8848 35.6836C18.04 35.6836 17.2728 35.877 16.584 36.2637C15.9084 36.6503 15.2911 37.17 14.7324 37.8232C14.1736 38.4766 13.6341 39.2172 13.1143 40.0439C12.4386 41.1505 11.6851 42.0971 10.8535 42.8838C10.0218 43.6705 8.92968 44.2712 7.57812 44.6846C6.2266 45.0845 4.41373 45.2914 2.13965 45.3047L1.47656 45.3047L1.47656 37.7236L2.13965 37.7236C3.41323 37.7103 4.48573 37.5437 5.35644 37.2236C6.22697 36.8903 6.99357 36.3902 7.65625 35.7236C8.319 35.0436 8.95563 34.1764 9.5664 33.123C10.2942 31.8696 11.1072 30.7824 12.0039 29.8623C12.9134 28.9425 13.9528 28.2293 15.1221 27.7227C16.2988 27.2052 17.6431 26.945 19.1543 26.9424C17.6431 26.9398 16.2988 26.6805 15.1221 26.1631C13.9526 25.6564 12.9135 24.9424 12.0039 24.0225C11.1072 23.1024 10.2941 22.0161 9.56641 20.7627C8.95562 19.7093 8.31902 18.8422 7.65625 18.1621C6.99357 17.4955 6.22699 16.9955 5.35644 16.6621C4.48573 16.3421 3.41323 16.1754 2.13965 16.1621L1.47656 16.1621L1.47656 8.58105L2.13965 8.58105C4.4138 8.59439 6.22659 8.80116 7.57812 9.20117C8.92968 9.61455 10.0218 10.2142 10.8535 11.001C11.6852 11.7877 12.4385 12.735 13.1143 13.8418C13.634 14.6684 14.1737 15.4082 14.7324 16.0615C15.2912 16.7148 15.9083 17.2354 16.584 17.6221C17.2728 18.0088 18.04 18.2021 18.8848 18.2021C19.7813 18.2021 20.5675 17.9819 21.2432 17.542C21.9189 17.102 22.4389 16.5084 22.8027 15.7617C23.1666 15.0283 23.3486 14.2147 23.3486 13.3213C23.3486 12.4546 23.16 11.6347 22.7832 10.8613C22.4193 10.0879 21.8733 9.45432 21.1455 8.96094C20.4309 8.46773 19.541 8.20117 18.4756 8.16113L18.4756 -2.29387e-06C21.0745 0.0667072 23.2188 0.706566 24.9082 1.91992C26.6106 3.13333 27.8782 4.74013 28.71 6.74023C29.5547 8.74042 29.9766 10.9478 29.9766 13.3613C29.9766 16.0149 29.5481 18.3621 28.6904 20.4023C27.8457 22.4426 26.6173 24.043 25.0059 25.2031C23.4015 26.3581 21.4684 26.9373 19.207 26.9424C21.4684 26.9475 23.4015 27.5276 25.0059 28.6826C26.6173 29.8427 27.8457 31.4432 28.6904 33.4834C29.548 35.5234 29.9765 37.8702 29.9766 40.5234ZM57.8145 16.1621C56.5409 16.1754 55.4684 16.3421 54.5977 16.6621C53.7271 16.9955 52.9605 17.4955 52.2979 18.1621C51.6351 18.8422 50.9985 19.7093 50.3877 20.7627C49.66 22.0161 48.8469 23.1024 47.9502 24.0225C47.0406 24.9424 46.0015 25.6564 44.832 26.1631C43.6553 26.6805 42.311 26.9398 40.7998 26.9424C42.311 26.945 43.6553 27.2052 44.832 27.7227C46.0016 28.2294 47.0415 28.9432 47.9512 29.8633C48.8477 30.7833 49.66 31.8698 50.3877 33.123C50.9985 34.1765 51.6351 35.0436 52.2979 35.7236C52.9605 36.3902 53.7271 36.8903 54.5977 37.2236C55.4684 37.5437 56.5409 37.7103 57.8145 37.7236L58.4775 37.7236L58.4775 45.3047L57.8145 45.3047C55.5403 45.2914 53.7275 45.0846 52.376 44.6846C51.0245 44.2712 49.9323 43.6715 49.1006 42.8848C48.2689 42.098 47.5156 41.1507 46.8398 40.0439C46.3201 39.2173 45.7804 38.4775 45.2217 37.8242C44.663 37.1709 44.0458 36.6504 43.3701 36.2637C42.6813 35.877 41.9141 35.6836 41.0693 35.6836C40.1727 35.6836 39.3867 35.9038 38.7109 36.3437C38.0352 36.7838 37.5152 37.3773 37.1514 38.124C36.7875 38.8574 36.6055 39.6711 36.6055 40.5645C36.6055 41.4311 36.7941 42.2511 37.1709 43.0244C37.5348 43.7978 38.0809 44.4314 38.8086 44.9248C39.5232 45.418 40.4132 45.6846 41.4785 45.7246L41.4785 53.8857C38.8795 53.819 36.7353 53.1783 35.0459 51.9648C33.3436 50.7514 32.0768 49.1447 31.2451 47.1445C30.4004 45.1444 29.9776 42.9378 29.9775 40.5244C29.9775 37.8708 30.4069 35.5236 31.2646 33.4834C32.1094 31.4432 33.3368 29.8427 34.9482 28.6826C36.5529 27.5274 38.4863 26.9473 40.748 26.9424C38.4863 26.9375 36.5529 26.3583 34.9482 25.2031C33.3368 24.043 32.1084 22.4426 31.2637 20.4023C30.406 18.3621 29.9775 16.0149 29.9775 13.3613C29.9776 10.9478 30.3994 8.74042 31.2441 6.74023C32.0759 4.74014 33.3435 3.13333 35.0459 1.91992C36.7353 0.706572 38.8796 0.0667018 41.4785 -1.28838e-06L41.4785 8.16113C40.4131 8.20116 39.5233 8.46773 38.8086 8.96094C38.0808 9.45432 37.5348 10.0879 37.1709 10.8613C36.7941 11.6347 36.6055 12.4546 36.6055 13.3213C36.6055 14.2147 36.7875 15.0283 37.1514 15.7617C37.5152 16.5084 38.0352 17.102 38.7109 17.542C39.3866 17.9819 40.1728 18.2021 41.0693 18.2021C41.9139 18.2021 42.6805 18.0086 43.3691 17.6221C44.0449 17.2354 44.6629 16.7149 45.2217 16.0615C45.7804 15.4082 46.3201 14.6684 46.8398 13.8418C47.5156 12.735 48.2689 11.7877 49.1006 11.001C49.9323 10.2142 51.0244 9.61455 52.376 9.20117C53.7275 8.80117 55.5403 8.59439 57.8145 8.58105L58.4775 8.58105L58.4775 16.1621L57.8145 16.1621ZM70.9531 12.541C70.9531 13.3944 70.7449 14.1813 70.3291 14.9014C69.9003 15.6213 69.3354 16.2016 68.6338 16.6416C67.919 17.095 67.1321 17.3285 66.2744 17.3418C65.001 17.3284 63.9096 16.8417 63 15.8818C62.0903 14.9217 61.6348 13.8078 61.6348 12.541C61.6348 11.2077 62.0904 10.0678 63 9.12109C63.9096 8.18777 65.001 7.72794 66.2744 7.74121C67.561 7.72788 68.6662 8.18766 69.5889 9.12109C70.4984 10.0677 70.9531 11.2078 70.9531 12.541ZM70.9531 41.3438C70.9531 42.6772 70.4985 43.8179 69.5889 44.7646C68.6662 45.6981 67.561 46.1579 66.2744 46.1445C65.001 46.1578 63.9096 45.6979 63 44.7646C62.0903 43.8179 61.6348 42.6772 61.6348 41.3437C61.6349 40.0771 62.0904 38.9639 63 38.0039C63.9096 37.0439 65.001 36.5574 66.2744 36.5439C67.1321 36.5573 67.919 36.7908 68.6338 37.2441C69.3354 37.6842 69.9003 38.2644 70.3291 38.9844C70.7448 39.7043 70.9531 40.4906 70.9531 41.3438Z" fill="white"/>
</svg>
